<mxfile host="app.diagrams.net" agent="Mozilla/5.0 (Windows NT 10.0; Win64; x64) AppleWebKit/537.36 (KHTML, like Gecko) Chrome/134.0.0.0 Safari/537.36" version="26.1.0">
  <diagram name="페이지-1" id="5qj19xGUGERsWVR2H3_I">
    <mxGraphModel dx="1674" dy="738" grid="0" gridSize="10" guides="1" tooltips="1" connect="1" arrows="1" fold="1" page="1" pageScale="1" pageWidth="827" pageHeight="1169" math="0" shadow="0">
      <root>
        <mxCell id="0" />
        <mxCell id="1" parent="0" />
        <mxCell id="TBO3Pb_-eZRMsJ7mVRY1-11" style="edgeStyle=orthogonalEdgeStyle;rounded=0;orthogonalLoop=1;jettySize=auto;html=1;exitX=0.5;exitY=1;exitDx=0;exitDy=0;entryX=0.5;entryY=0;entryDx=0;entryDy=0;" edge="1" parent="1" source="TBO3Pb_-eZRMsJ7mVRY1-1" target="TBO3Pb_-eZRMsJ7mVRY1-2">
          <mxGeometry relative="1" as="geometry" />
        </mxCell>
        <mxCell id="TBO3Pb_-eZRMsJ7mVRY1-12" value="" style="edgeStyle=orthogonalEdgeStyle;rounded=0;orthogonalLoop=1;jettySize=auto;html=1;strokeWidth=3;" edge="1" parent="1" source="TBO3Pb_-eZRMsJ7mVRY1-1" target="TBO3Pb_-eZRMsJ7mVRY1-2">
          <mxGeometry relative="1" as="geometry" />
        </mxCell>
        <mxCell id="TBO3Pb_-eZRMsJ7mVRY1-1" value="메뉴 선택" style="rounded=0;whiteSpace=wrap;html=1;" vertex="1" parent="1">
          <mxGeometry x="30" y="40" width="150" height="60" as="geometry" />
        </mxCell>
        <mxCell id="TBO3Pb_-eZRMsJ7mVRY1-10" style="edgeStyle=orthogonalEdgeStyle;rounded=0;orthogonalLoop=1;jettySize=auto;html=1;exitX=0.5;exitY=1;exitDx=0;exitDy=0;entryX=0.5;entryY=0;entryDx=0;entryDy=0;strokeWidth=3;" edge="1" parent="1" source="TBO3Pb_-eZRMsJ7mVRY1-2" target="TBO3Pb_-eZRMsJ7mVRY1-4">
          <mxGeometry relative="1" as="geometry" />
        </mxCell>
        <mxCell id="TBO3Pb_-eZRMsJ7mVRY1-2" value="기능 수행" style="rounded=0;whiteSpace=wrap;html=1;" vertex="1" parent="1">
          <mxGeometry x="30" y="140" width="150" height="60" as="geometry" />
        </mxCell>
        <mxCell id="TBO3Pb_-eZRMsJ7mVRY1-9" style="edgeStyle=orthogonalEdgeStyle;rounded=0;orthogonalLoop=1;jettySize=auto;html=1;exitX=1;exitY=0.5;exitDx=0;exitDy=0;entryX=0.5;entryY=0;entryDx=0;entryDy=0;fillColor=#f8cecc;strokeColor=#b85450;strokeWidth=3;" edge="1" parent="1" source="TBO3Pb_-eZRMsJ7mVRY1-4" target="TBO3Pb_-eZRMsJ7mVRY1-1">
          <mxGeometry relative="1" as="geometry">
            <Array as="points">
              <mxPoint x="210" y="270" />
              <mxPoint x="210" y="20" />
              <mxPoint x="105" y="20" />
            </Array>
          </mxGeometry>
        </mxCell>
        <mxCell id="TBO3Pb_-eZRMsJ7mVRY1-13" style="edgeStyle=orthogonalEdgeStyle;rounded=0;orthogonalLoop=1;jettySize=auto;html=1;entryX=0.5;entryY=0;entryDx=0;entryDy=0;fillColor=#1ba1e2;strokeColor=#006EAF;strokeWidth=3;" edge="1" parent="1" source="TBO3Pb_-eZRMsJ7mVRY1-4" target="TBO3Pb_-eZRMsJ7mVRY1-8">
          <mxGeometry relative="1" as="geometry" />
        </mxCell>
        <mxCell id="TBO3Pb_-eZRMsJ7mVRY1-4" value="종료?" style="rhombus;whiteSpace=wrap;html=1;" vertex="1" parent="1">
          <mxGeometry x="30" y="230" width="150" height="80" as="geometry" />
        </mxCell>
        <mxCell id="TBO3Pb_-eZRMsJ7mVRY1-8" value="종료" style="rounded=0;whiteSpace=wrap;html=1;" vertex="1" parent="1">
          <mxGeometry x="30" y="340" width="150" height="60" as="geometry" />
        </mxCell>
      </root>
    </mxGraphModel>
  </diagram>
</mxfile>
